<?xml version="1.0" encoding="utf-8"?>
<!-- Generator: Adobe Illustrator 16.0.0, SVG Export Plug-In . SVG Version: 6.00 Build 0)  -->
<!DOCTYPE svg PUBLIC "-//W3C//DTD SVG 1.1//EN" "http://www.w3.org/Graphics/SVG/1.1/DTD/svg11.dtd">
<svg version="1.1" id="Layer_1" xmlns="http://www.w3.org/2000/svg" xmlns:xlink="http://www.w3.org/1999/xlink" x="0px" y="0px"
	 width="63.136px" height="63.138px" viewBox="0 0 63.136 63.138" enable-background="new 0 0 63.136 63.138" xml:space="preserve">
<g>
	<path fill-rule="evenodd" clip-rule="evenodd" fill="#545453" d="M50.326,52.17c-2.444,0.009-4.281-0.625-4.206-3.62
		c0.028-1.143-0.066-2.34-0.381-3.432c-2.433-8.444-3.606-9.307-12.468-8.941c-2.98,0.123-6.141-0.026-8.88,0.926
		c-4.718,1.641-5.685,6.455-7.062,10.561c-0.628,1.873-0.205,4.106-2.952,4.404c-1.659,0.181-3.498,0.466-4.653-1.034
		c-1.608-2.087-0.449-4.172,0.607-6.044c5.309-9.415,10.646-18.814,16.083-28.156c1.103-1.895,2.003-3.817,2.576-5.91
		c0.649-2.377,2.132-3.851,4.644-3.641c2.548,0.214,3.49,1.68,3.518,4.405c0.04,4.147,2.881,7.334,4.777,10.797
		c4.154,7.583,8.686,14.977,11.973,22.996C55.582,49.58,54.107,52.02,50.326,52.17z M32.221,19.328
		c-1.74,3.083-3.509,6.205-5.267,9.334c-1.161,2.066-0.148,2.73,1.773,2.488c3.021-0.381,7.187,1.391,8.787-1.146
		c1.429-2.265-1.81-5.213-3.003-7.85C34.052,21.141,33.75,19.95,32.221,19.328z"/>
</g>
</svg>
