<?xml version="1.0" encoding="utf-8"?>
<!-- Generator: Adobe Illustrator 16.0.0, SVG Export Plug-In . SVG Version: 6.00 Build 0)  -->
<!DOCTYPE svg PUBLIC "-//W3C//DTD SVG 1.1//EN" "http://www.w3.org/Graphics/SVG/1.1/DTD/svg11.dtd">
<svg version="1.1" id="Layer_1" xmlns="http://www.w3.org/2000/svg" xmlns:xlink="http://www.w3.org/1999/xlink" x="0px" y="0px"
	 width="130px" height="130px" viewBox="0 0 130 130" enable-background="new 0 0 130 130" xml:space="preserve">
<g id="_x30_t68De_1_">
	<g>
		<path fill-rule="evenodd" clip-rule="evenodd" fill="#4293D0" d="M67.805,97.377c-9.918,0-17.563-0.111-25.206,0.028
			c-8.43,0.155-16.472-1.024-24.195-4.758C9.738,88.458,3.592,82.263,0.962,72.938C-3.183,58.239,6.51,42.206,21.505,38.8
			c4.767-1.083,9.545-1.22,14.223,0.449c1.238,0.441,0.963-0.61,1.066-0.999c0.939-3.533,2.311-6.868,4.477-9.82
			c3.613-4.926,8.046-8.807,13.82-11.13c5.583-2.247,11.307-2.528,17.071-1.421c11.182,2.148,18.56,8.99,22.768,19.373
			c0.798,1.971,1.501,4.057,1.588,6.246c0.04,1.021,0.454,1.302,1.453,1.055c3.354-0.826,6.732-0.81,10.147-0.317
			c9.235,1.332,15.125,6.964,19.392,14.808c1.113,2.051,1.744,4.389,1.946,6.487c0.188,1.973,0.628,4.102,0.108,6.298
			c-0.506,2.136-0.745,4.393-1.299,6.548c-0.912,3.538-2.858,6.535-5.319,9.174c-6.7,7.178-15.154,10.708-24.798,11.468
			C87.291,97.875,76.402,97.126,67.805,97.377z M46.403,44.167c0.08,2.588,0.023,4.432,0.458,6.275
			c0.716,3.036,1.8,5.974,3.522,8.492c2.901,4.244,7.19,5.787,12.282,5.129c1.764-0.228,2.574,0.589,2.235,2.311
			c-0.789,4.003-2.822,7.334-5.909,9.935c-2.549,2.148-2.63,3.115,0.049,5.209c0.324,0.253,0.656,0.503,1.012,0.703
			c5.592,3.16,6.358,3.523,10.731-1.544c5.748-6.66,10.405-13.966,12.872-22.59c1.917-6.702,3.258-13.236,0.968-20.162
			c-1.437-4.347-4.043-7.5-7.89-9.692c-4.017-2.291-8.4-2.932-12.999-2.569c-4.591,0.362-8.731,1.86-11.953,5.114
			C47.97,34.626,46.021,39.363,46.403,44.167z"/>
		<path fill-rule="evenodd" clip-rule="evenodd" fill="#D6D5D6" d="M46.403,44.167c-0.382-4.803,1.567-9.54,5.379-13.389
			c3.222-3.254,7.361-4.752,11.953-5.114c4.599-0.363,8.982,0.278,12.999,2.569c3.847,2.192,6.453,5.345,7.89,9.692
			c2.29,6.925,0.949,13.459-0.968,20.162c-2.467,8.625-7.124,15.93-12.872,22.59c-4.373,5.067-5.14,4.704-10.731,1.544
			c-0.356-0.2-0.688-0.45-1.012-0.703c-2.679-2.094-2.598-3.061-0.049-5.209c3.086-2.601,5.12-5.932,5.909-9.935
			c0.339-1.721-0.471-2.539-2.235-2.311c-5.091,0.658-9.381-0.885-12.282-5.129c-1.722-2.518-2.807-5.456-3.522-8.492
			C46.426,48.598,46.482,46.755,46.403,44.167z M62.205,44.015c0.116,2.191,0.631,4.465,1.784,6.562
			c1.209,2.2,2.886,3.17,4.566,2.683c1.379-0.4,2.399-2.33,2.405-4.543c0-0.059,0-0.117-0.003-0.176
			c-0.188-3.457-1.238-6.609-3.148-9.518c-0.689-1.049-1.52-1.337-2.653-1.287c-1.141,0.051-1.762,0.65-2.206,1.669
			C62.327,40.835,61.969,42.275,62.205,44.015z"/>
		<path fill-rule="evenodd" clip-rule="evenodd" fill="#4293D0" d="M62.205,44.015c-0.236-1.739,0.122-3.18,0.744-4.609
			c0.444-1.019,1.065-1.618,2.206-1.669c1.134-0.05,1.964,0.238,2.653,1.287c1.91,2.908,2.96,6.061,3.148,9.518
			c0.003,0.059,0.003,0.118,0.003,0.176c-0.006,2.213-1.026,4.143-2.405,4.543c-1.68,0.487-3.357-0.483-4.566-2.683
			C62.836,48.48,62.321,46.206,62.205,44.015z"/>
	</g>
</g>
</svg>
